<?xml version="1.0" encoding="UTF-8"?>
<svg xmlns="http://www.w3.org/2000/svg" xmlns:xlink="http://www.w3.org/1999/xlink" width="360.919" height="295.731" viewBox="0 0 360.919 295.731">
<defs>
<clipPath id="clip-0">
<path clip-rule="nonzero" d="M 0.125 0 L 133 0 L 133 155 L 0.125 155 Z M 0.125 0 "/>
</clipPath>
<clipPath id="clip-1">
<path clip-rule="nonzero" d="M 229 0 L 360.714844 0 L 360.714844 155 L 229 155 Z M 229 0 "/>
</clipPath>
<clipPath id="clip-2">
<path clip-rule="nonzero" d="M 155 266 L 207 266 L 207 295.460938 L 155 295.460938 Z M 155 266 "/>
</clipPath>
</defs>
<path fill-rule="nonzero" fill="rgb(22.698975%, 12.89978%, 3.49884%)" fill-opacity="1" d="M 7.972656 9.472656 L 2.367188 4.382812 L 28.648438 127.824219 L 53.929688 179.277344 L 53.054688 191.804688 L 52.882812 227.460938 L 122.023438 263.570312 L 146.027344 273.457031 L 155.609375 279.953125 L 206.640625 280.027344 L 215.054688 273.597656 L 239.949219 263.347656 L 308.550781 193 L 307.859375 179.113281 L 332.722656 129.320312 L 355.136719 9.730469 L 310.113281 42.9375 L 229.367188 88.644531 L 215.070312 88.261719 L 147.507812 88.3125 L 132.519531 89.164062 Z M 7.972656 9.472656 "/>
<g clip-path="url(#clip-0)">
<path fill-rule="nonzero" fill="rgb(95.298767%, 65.098572%, 5.099487%)" fill-opacity="1" d="M 0.125 -0.550781 C 30.367188 21.910156 63.222656 42.546875 94.257812 64.007812 C 106.160156 72.238281 121.371094 80.210938 132.519531 89.164062 C 122.519531 96.855469 113.222656 105.476562 103.363281 113.050781 C 97.289062 108.546875 82.820312 93.179688 76.675781 86.65625 C 61.574219 70.625 45.886719 54.847656 30.84375 38.832031 C 27.507812 35.4375 24.082031 32.589844 20.472656 29.511719 C 25.9375 42.660156 32.898438 54.761719 39.625 67.351562 C 50.917969 88.484375 61.691406 110.320312 73.242188 131.21875 C 70.042969 138.347656 64.300781 148.359375 60.078125 154.832031 C 53.214844 150.375 32.238281 135.054688 28.652344 127.820312 C 26.871094 124.242188 24.015625 108.789062 22.851562 103.6875 C 18.8125 86.335938 14.917969 68.949219 11.167969 51.53125 L 4.546875 22.160156 C 2.933594 15.171875 0.613281 6.503906 0.125 -0.550781 "/>
</g>
<g clip-path="url(#clip-1)">
<path fill-rule="nonzero" fill="rgb(95.298767%, 65.098572%, 5.099487%)" fill-opacity="1" d="M 361.253906 0.414062 L 360.714844 0 L 267.175781 64.007812 C 254.652344 72.4375 241.300781 79.96875 229.367188 88.644531 C 235.328125 94.742188 250.777344 106.921875 258.160156 113.070312 C 262.871094 109.851562 271.535156 100.101562 275.980469 95.59375 L 314.753906 55.53125 C 323.535156 46.375 332.628906 35.976562 342.535156 28.261719 C 337.074219 39.679688 331.183594 50.472656 325.390625 61.652344 L 303.265625 104.78125 C 301.332031 108.488281 290.324219 128.65625 289.691406 131.015625 C 291.277344 137.046875 294.503906 140.90625 297.371094 146.242188 C 299.007812 149.304688 300.769531 151.898438 302.679688 154.785156 C 312.226562 147.644531 321.539062 138.957031 331.226562 131.8125 C 334.058594 129.730469 337.890625 108.785156 338.851562 104.5625 L 350.179688 53.664062 C 351.792969 46.382812 361.636719 5.621094 361.253906 0.414062 "/>
</g>
<path fill-rule="nonzero" fill="rgb(95.298767%, 65.098572%, 5.099487%)" fill-opacity="1" d="M 209.460938 215.527344 C 205.953125 212.035156 196.464844 202.328125 193.289062 200.171875 C 187.722656 199.503906 173.855469 199.824219 167.964844 200.125 C 165.769531 201.550781 151.609375 215.5 148.859375 218.234375 C 141.496094 225.5625 131.738281 233.867188 124.890625 241.332031 C 126.722656 246.871094 128.660156 251.0625 131.050781 256.34375 C 133.164062 261.230469 134.253906 264.800781 138.097656 268.574219 C 140.96875 270.527344 142.992188 271.769531 146.027344 273.457031 C 150.152344 271.710938 170.976562 259.59375 174.042969 256.917969 C 174.273438 254.503906 174.382812 251.949219 174.527344 249.519531 C 170.8125 242.085938 158.683594 234.832031 154.601562 223.4375 C 171.753906 223.1875 189.238281 223.558594 206.53125 223.367188 C 203.609375 229.867188 199.644531 234.910156 194.714844 239.996094 C 189.820312 244.414062 182.042969 254.351562 190.65625 259.527344 C 198.089844 263.996094 207.324219 269.699219 215.054688 273.597656 C 217.785156 272.332031 223.3125 269.390625 224.925781 267.070312 C 229.242188 260.855469 234.503906 248.933594 236.683594 241.796875 C 228.378906 232.949219 218.15625 224.191406 209.460938 215.527344 "/>
<path fill-rule="nonzero" fill="rgb(95.298767%, 65.098572%, 5.099487%)" fill-opacity="1" d="M 147.507812 88.3125 C 170.03125 88.09375 192.550781 88.078125 215.070312 88.261719 C 214.425781 91.96875 210.699219 104 209.457031 108.660156 C 204.007812 128.675781 198.445312 148.660156 192.765625 168.609375 C 191.042969 174.9375 188.746094 183.953125 186.285156 189.824219 C 182.761719 189.53125 178.367188 189.496094 174.769531 189.367188 C 172.460938 183.503906 170.566406 175.136719 168.855469 168.828125 L 159.8125 136.105469 L 151.882812 107.21875 C 150.992188 104.03125 146.839844 90.855469 147.507812 88.3125 "/>
<path fill-rule="nonzero" fill="rgb(95.298767%, 65.098572%, 5.099487%)" fill-opacity="1" d="M 137.128906 98.582031 C 139.589844 101 150.898438 143.621094 152.558594 149.773438 C 155.71875 161.503906 160.941406 177.980469 163.597656 189.804688 C 160.871094 193.167969 159.011719 195.316406 155.972656 198.382812 C 150.390625 189.914062 141.425781 172.804688 136.027344 166.253906 C 131.886719 163.652344 84.925781 152.121094 77.234375 150.308594 C 85.355469 142.152344 96.917969 133.75 105.707031 126.007812 C 116.089844 116.851562 126.445312 107.339844 137.128906 98.582031 "/>
<path fill-rule="nonzero" fill="rgb(95.298767%, 65.098572%, 5.099487%)" fill-opacity="1" d="M 224 98.140625 C 229.03125 101.644531 236.027344 108.558594 241.019531 112.90625 L 277.214844 144.214844 C 280.53125 146.582031 281.875 147.53125 284.660156 150.429688 L 277.234375 152.234375 C 272.996094 153.132812 268.785156 154.160156 264.605469 155.3125 L 242.292969 160.640625 C 237.289062 161.839844 226.949219 163.550781 224.074219 167.753906 C 217.496094 177.363281 212.238281 188.265625 205.859375 198.082031 C 202.648438 195.019531 200.742188 192.878906 198.03125 189.421875 C 202.128906 171.804688 208.515625 152.210938 213.203125 134.488281 C 215.3125 126.523438 221.148438 104.878906 224 98.140625 "/>
<path fill-rule="nonzero" fill="rgb(95.298767%, 70.599365%, 11.799622%)" fill-opacity="1" d="M 277.214844 144.214844 C 280.53125 146.582031 281.875 147.53125 284.660156 150.425781 L 277.234375 152.234375 C 275.816406 152.039062 275.171875 152.277344 273.703125 151.773438 L 274.054688 150.566406 C 275.257812 150.132812 275.507812 149.9375 276.609375 149.265625 C 277.546875 147.757812 277.261719 146.050781 277.214844 144.214844 "/>
<path fill-rule="nonzero" fill="rgb(85.899353%, 59.199524%, 10.998535%)" fill-opacity="1" d="M 264.605469 155.3125 C 265.039062 150.832031 270.0625 151.195312 274.054688 150.566406 L 273.703125 151.773438 C 275.171875 152.277344 275.816406 152.039062 277.234375 152.234375 C 272.996094 153.132812 268.785156 154.160156 264.605469 155.3125 "/>
<path fill-rule="nonzero" fill="rgb(95.298767%, 65.098572%, 5.099487%)" fill-opacity="1" d="M 290.082031 159.597656 C 292.457031 161.214844 304.65625 175.703125 307.859375 179.113281 C 304.539062 182.726562 289.542969 195.390625 284.972656 199.21875 C 271.675781 210.347656 258.105469 223.757812 244.960938 234.523438 C 242.222656 231.875 239.570312 229.023438 236.941406 226.257812 C 233.777344 223.167969 215.933594 206.414062 216.515625 203.304688 C 220.507812 202.074219 236.683594 203.28125 243.957031 201.816406 C 270.917969 191.292969 262.941406 186.316406 277.171875 165.710938 C 278.621094 163.605469 287.085938 160.699219 290.082031 159.597656 "/>
<path fill-rule="nonzero" fill="rgb(95.298767%, 65.098572%, 5.099487%)" fill-opacity="1" d="M 71.417969 159.921875 C 93.007812 163.039062 84.820312 185.382812 104.488281 196.726562 C 123.71875 206.945312 135.9375 198.679688 144.90625 204.433594 C 144.210938 207.410156 127.808594 222.855469 124.878906 225.695312 C 122 228.839844 119.703125 231.425781 116.4375 234.210938 C 109.097656 228.683594 100.308594 219.773438 93.035156 213.503906 L 68.15625 191.867188 C 63.710938 188.03125 57.796875 183.390625 53.929688 179.277344 C 58.101562 173.886719 66.546875 164.558594 71.417969 159.921875 "/>
<path fill-rule="nonzero" fill="rgb(95.298767%, 65.098572%, 5.099487%)" fill-opacity="1" d="M 53.054688 191.804688 C 57.710938 195.570312 62.371094 199.789062 66.726562 203.921875 C 76.410156 213.109375 87.328125 221.550781 96.820312 230.878906 L 98.269531 232.191406 C 101.296875 234.109375 106.929688 239.695312 109.75 242.339844 L 110.617188 243.582031 C 117.902344 248.300781 119.453125 255.609375 122.023438 263.570312 L 80.820312 243.378906 C 73.289062 239.683594 58.289062 233.324219 52.882812 227.460938 C 52.796875 224.886719 52.839844 221.964844 52.820312 219.359375 L 52.886719 217.996094 C 52.679688 209.863281 52.429688 199.882812 53.054688 191.804688 "/>
<path fill-rule="nonzero" fill="rgb(95.298767%, 65.098572%, 5.099487%)" fill-opacity="1" d="M 52.886719 217.996094 C 58.320312 220.851562 61.296875 224.90625 67.105469 227.347656 C 69.488281 226.917969 71.757812 226.53125 74.113281 225.96875 C 79.273438 229.222656 83.453125 234.300781 87.722656 236.984375 C 94.164062 237.042969 94.917969 236.5 99.621094 241.289062 L 100.105469 241.785156 C 101.023438 242.042969 101.675781 242.242188 102.609375 242.425781 C 105.125 242.554688 107.25 242.445312 109.75 242.339844 L 110.617188 243.582031 C 117.902344 248.300781 119.453125 255.609375 122.023438 263.570312 L 80.820312 243.378906 C 73.289062 239.683594 58.289062 233.324219 52.882812 227.460938 C 52.796875 224.886719 52.839844 221.964844 52.820312 219.359375 Z M 52.886719 217.996094 "/>
<path fill-rule="nonzero" fill="rgb(64.698792%, 39.199829%, 1.199341%)" fill-opacity="1" d="M 52.886719 217.996094 C 58.320312 220.851562 61.296875 224.90625 67.105469 227.347656 C 69.488281 226.917969 71.757812 226.53125 74.113281 225.96875 C 79.273438 229.222656 83.453125 234.300781 87.722656 236.984375 C 94.164062 237.042969 94.917969 236.5 99.621094 241.289062 L 100.105469 241.785156 C 101.023438 242.042969 101.675781 242.242188 102.609375 242.425781 C 100.792969 242.535156 99.964844 242.4375 98.359375 243.316406 C 97.707031 242.742188 96.445312 240.117188 95.949219 239.179688 C 92.703125 239.007812 89.421875 239.308594 86.167969 239.507812 C 81.722656 235.902344 78.335938 231.871094 73.597656 228.292969 C 60.875 229.878906 62.957031 226.953125 52.820312 219.359375 Z M 52.886719 217.996094 "/>
<path fill-rule="nonzero" fill="rgb(48.199463%, 27.099609%, 1.599121%)" fill-opacity="1" d="M 109.75 242.339844 L 110.617188 243.582031 C 106.464844 243.558594 102.511719 243.535156 98.359375 243.316406 C 99.964844 242.4375 100.792969 242.535156 102.609375 242.425781 C 105.125 242.554688 107.25 242.445312 109.75 242.339844 "/>
<path fill-rule="nonzero" fill="rgb(64.698792%, 39.199829%, 1.199341%)" fill-opacity="1" d="M 98.269531 232.191406 C 87.925781 232.792969 83.65625 230.75 76.195312 223.722656 C 69.792969 217.699219 70.421875 222.03125 65.078125 220.488281 C 63.296875 218.523438 64.039062 216.105469 65.851562 214.4375 C 66.601562 214.25 67.484375 213.851562 67.957031 214.199219 C 75.074219 219.433594 80.839844 227.167969 89.699219 230.210938 C 91.132812 230.703125 95.101562 230.808594 96.820312 230.878906 Z M 98.269531 232.191406 "/>
<path fill-rule="nonzero" fill="rgb(95.298767%, 65.098572%, 5.099487%)" fill-opacity="1" d="M 66.480469 215.855469 C 67.378906 215.148438 68.683594 215.296875 69.398438 216.195312 C 70.109375 217.089844 69.964844 218.394531 69.070312 219.113281 C 68.171875 219.835938 66.859375 219.6875 66.140625 218.785156 C 65.421875 217.882812 65.574219 216.570312 66.480469 215.855469 "/>
<path fill-rule="nonzero" fill="rgb(95.298767%, 65.098572%, 5.099487%)" fill-opacity="1" d="M 308.519531 191.742188 C 308.59375 195.914062 309.453125 214.480469 308.429688 217.6875 C 309.164062 220.335938 309.136719 222.457031 308.660156 225.183594 C 308.238281 229.949219 303.113281 232.425781 299.101562 234.324219 C 279.300781 243.691406 259.839844 254.21875 239.949219 263.347656 C 242.621094 256.128906 243.632812 247.707031 250.609375 244.023438 L 251.746094 242.394531 C 255.488281 238.996094 259.222656 235.523438 263.136719 232.332031 L 265.128906 230.546875 C 279.597656 218.507812 293.828125 204.121094 308.519531 191.742188 "/>
<path fill-rule="nonzero" fill="rgb(95.298767%, 65.098572%, 5.099487%)" fill-opacity="1" d="M 308.429688 217.6875 C 309.164062 220.335938 309.136719 222.457031 308.660156 225.183594 C 308.238281 229.949219 303.113281 232.425781 299.101562 234.324219 C 279.300781 243.691406 259.839844 254.21875 239.949219 263.347656 C 242.621094 256.128906 243.632812 247.707031 250.609375 244.019531 L 251.746094 242.394531 C 255.28125 243.152344 257.851562 242.933594 261.429688 242.785156 L 266.179688 237.40625 C 268.496094 237.417969 271.222656 237.699219 273.566406 237.878906 C 283.742188 230.9375 282.03125 224.945312 295.8125 227.359375 C 298.566406 225.652344 305.570312 219.9375 308.429688 217.6875 "/>
<path fill-rule="nonzero" fill="rgb(64.698792%, 39.199829%, 1.199341%)" fill-opacity="1" d="M 308.429688 217.6875 C 309.164062 220.335938 309.136719 222.457031 308.660156 225.183594 L 308.394531 219.960938 L 307.789062 219.785156 C 304.640625 222.640625 299.6875 227.441406 296.136719 229.335938 C 293.679688 228.960938 291.136719 228.527344 288.675781 228.230469 C 282.796875 231.667969 280.171875 235.945312 274.835938 239.71875 C 272.109375 239.410156 268.9375 238.964844 266.234375 238.832031 C 265.425781 240.496094 264.511719 242.28125 263.761719 243.953125 C 259.449219 244.015625 254.898438 244.160156 250.609375 244.019531 L 251.746094 242.394531 C 255.28125 243.152344 257.851562 242.933594 261.429688 242.785156 L 266.179688 237.40625 C 268.496094 237.417969 271.222656 237.699219 273.566406 237.878906 C 283.742188 230.9375 282.03125 224.945312 295.8125 227.359375 C 298.566406 225.652344 305.570312 219.9375 308.429688 217.6875 "/>
<path fill-rule="nonzero" fill="rgb(64.698792%, 39.199829%, 1.199341%)" fill-opacity="1" d="M 265.128906 230.546875 C 267.277344 230.484375 271.078125 230.519531 273.007812 229.789062 C 281.175781 226.691406 286.648438 219.042969 293.328125 214.011719 C 295.179688 212.621094 298.78125 217.203125 297.566406 220.09375 C 294.257812 222.191406 290.785156 219.875 290.097656 220.230469 C 284.699219 223.046875 279.660156 230.339844 273.484375 231.664062 C 270.695312 232.265625 266.164062 232.226562 263.136719 232.332031 Z M 265.128906 230.546875 "/>
<path fill-rule="nonzero" fill="rgb(95.298767%, 65.098572%, 5.099487%)" fill-opacity="1" d="M 292.703125 215.320312 C 293.667969 214.839844 294.839844 215.195312 295.382812 216.125 C 295.925781 217.058594 295.652344 218.25 294.761719 218.855469 C 294.125 219.285156 293.304688 219.324219 292.632812 218.960938 C 291.957031 218.59375 291.542969 217.882812 291.558594 217.117188 C 291.574219 216.351562 292.015625 215.65625 292.703125 215.320312 "/>
<g clip-path="url(#clip-2)">
<path fill-rule="nonzero" fill="rgb(95.298767%, 65.098572%, 5.099487%)" fill-opacity="1" d="M 180.597656 266.324219 C 185.054688 268.097656 192.945312 272.175781 197.152344 274.644531 C 200.996094 276.488281 203.066406 277.65625 206.640625 280.027344 L 201.144531 283.941406 C 197.433594 286.539062 184.257812 296.121094 180.621094 295.804688 C 174.722656 295.292969 159.839844 284.183594 155.609375 279.957031 C 160.976562 276.242188 174.617188 268.230469 180.597656 266.324219 "/>
</g>
<path fill-rule="nonzero" fill="rgb(95.298767%, 65.098572%, 5.099487%)" fill-opacity="1" d="M 197.152344 274.644531 C 200.996094 276.488281 203.066406 277.65625 206.640625 280.027344 L 201.148438 283.945312 C 200.847656 282.1875 200.394531 279.191406 200.046875 277.570312 C 198.863281 276.523438 198.199219 275.792969 197.152344 274.644531 "/>
<path fill-rule="nonzero" fill="rgb(9.799194%, 19.599915%, 10.998535%)" fill-opacity="1" d="M 93.183594 161.746094 C 100.820312 159.25 101.621094 158.910156 109.269531 160.765625 C 110.355469 161.125 111.800781 161.515625 112.742188 162.066406 L 113.367188 162.445312 L 118.375 164.601562 C 117.835938 167.066406 116.535156 174.441406 115.265625 176.019531 C 115.683594 181.222656 118.160156 192.425781 120.332031 197.070312 C 119.816406 198.230469 119.621094 198.542969 119.285156 199.742188 C 120.820312 199.839844 121.117188 199.425781 122.453125 198.59375 L 126.097656 196.019531 C 124.859375 194.867188 123.519531 193.820312 122.207031 192.746094 L 127.902344 178.289062 C 127.824219 176.503906 126.441406 170.234375 126.078125 167.660156 C 128.863281 169.636719 131.789062 171.929688 134.535156 174.003906 C 136.519531 175.507812 138.898438 177.113281 140.460938 178.992188 C 141.332031 179.621094 141.949219 180.027344 142.746094 180.761719 C 144.582031 186.761719 145.902344 191.355469 147.046875 197.609375 C 148.078125 199.238281 148.261719 199.503906 147.199219 200.929688 C 145.269531 201.5625 121.039062 201.066406 117.941406 200.257812 C 116.933594 199.996094 98.652344 189.753906 97.648438 188.328125 C 95.140625 184.769531 88.328125 171.808594 88.628906 167.683594 L 87.601562 164.53125 L 87.5625 163.589844 C 89.265625 162.40625 91.117188 162.203125 93.183594 161.746094 "/>
<path fill-rule="nonzero" fill="rgb(81.599426%, 90.99884%, 81.199646%)" fill-opacity="1" d="M 93.183594 161.746094 C 100.820312 159.25 101.621094 158.910156 109.269531 160.765625 C 110.355469 161.125 111.800781 161.515625 112.742188 162.066406 L 113.367188 162.445312 L 118.375 164.601562 C 117.835938 167.066406 116.535156 174.441406 115.265625 176.019531 L 114.929688 176.191406 L 114.976562 177.476562 C 110.695312 174.957031 105.542969 172.425781 101.070312 170.292969 L 100.949219 170.59375 C 100.589844 170.183594 99.53125 169.289062 99.070312 168.875 C 98.335938 168.648438 95.246094 166.660156 93.824219 165.96875 C 90.921875 166.511719 92.425781 163.914062 88.460938 164.980469 L 87.601562 164.53125 L 87.5625 163.589844 C 89.265625 162.40625 91.117188 162.203125 93.183594 161.746094 "/>
<path fill-rule="nonzero" fill="rgb(9.399414%, 43.099976%, 21.998596%)" fill-opacity="1" d="M 93.183594 161.746094 C 100.820312 159.25 101.621094 158.910156 109.269531 160.765625 C 105.566406 164.042969 99.816406 165.050781 98.964844 168.371094 L 99.070312 168.875 C 98.335938 168.648438 95.246094 166.660156 93.824219 165.96875 C 90.921875 166.511719 92.425781 163.914062 88.460938 164.980469 L 87.601562 164.53125 L 87.5625 163.589844 C 89.265625 162.40625 91.117188 162.203125 93.183594 161.746094 "/>
<path fill-rule="nonzero" fill="rgb(9.399414%, 25.498962%, 11.799622%)" fill-opacity="1" d="M 87.601562 164.527344 L 87.5625 163.589844 C 89.265625 162.402344 91.117188 162.203125 93.183594 161.746094 C 94.191406 162.417969 95.1875 163.109375 96.171875 163.8125 C 95.390625 165.53125 95.304688 164.589844 93.824219 165.96875 C 90.921875 166.511719 92.425781 163.914062 88.460938 164.980469 Z M 87.601562 164.527344 "/>
<path fill-rule="nonzero" fill="rgb(3.49884%, 48.999023%, 24.699402%)" fill-opacity="1" d="M 109.269531 160.765625 C 110.351562 161.125 111.800781 161.515625 112.746094 162.066406 C 109.691406 163.8125 102.871094 167.390625 101.070312 170.292969 L 100.949219 170.59375 C 100.589844 170.183594 99.53125 169.289062 99.070312 168.875 L 98.964844 168.371094 C 99.816406 165.050781 105.566406 164.042969 109.269531 160.765625 "/>
<path fill-rule="nonzero" fill="rgb(9.399414%, 43.099976%, 21.998596%)" fill-opacity="1" d="M 113.371094 162.441406 L 118.375 164.601562 C 117.835938 167.066406 116.535156 174.441406 115.265625 176.019531 L 114.929688 176.191406 C 114.695312 172.203125 113.984375 166.335938 113.371094 162.441406 "/>
<path fill-rule="nonzero" fill="rgb(27.799988%, 71.798706%, 41.999817%)" fill-opacity="1" d="M 127.902344 178.289062 C 127.824219 176.503906 126.441406 170.234375 126.078125 167.660156 C 128.863281 169.636719 131.789062 171.929688 134.535156 174.003906 C 136.519531 175.507812 138.898438 177.113281 140.460938 178.992188 C 141.332031 179.621094 141.949219 180.027344 142.746094 180.761719 C 141.039062 183.820312 140.578125 184.652344 138.265625 187.363281 L 138.25 187.652344 C 133.953125 190.074219 130.183594 193.257812 126.097656 196.019531 C 124.859375 194.867188 123.519531 193.820312 122.207031 192.746094 Z M 127.902344 178.289062 "/>
<path fill-rule="nonzero" fill="rgb(3.49884%, 48.999023%, 24.699402%)" fill-opacity="1" d="M 127.902344 178.289062 C 127.824219 176.503906 126.441406 170.234375 126.078125 167.660156 C 128.863281 169.636719 131.789062 171.929688 134.535156 174.003906 C 136.519531 175.507812 138.898438 177.113281 140.460938 178.992188 L 134.570312 178.6875 C 132.050781 178.144531 130.683594 178.238281 128.136719 178.230469 Z M 127.902344 178.289062 "/>
<path fill-rule="nonzero" fill="rgb(9.399414%, 25.498962%, 11.799622%)" fill-opacity="1" d="M 127.902344 178.289062 C 127.824219 176.503906 126.441406 170.234375 126.078125 167.660156 C 128.863281 169.636719 131.789062 171.929688 134.535156 174.003906 C 132.367188 174.34375 130.671875 174.328125 129.074219 175.714844 C 128.503906 176.832031 128.308594 177.003906 128.136719 178.230469 Z M 127.902344 178.289062 "/>
<path fill-rule="nonzero" fill="rgb(44.299316%, 76.499939%, 55.299377%)" fill-opacity="1" d="M 138.265625 187.363281 C 136.789062 186.703125 129.636719 180.113281 129.125 178.757812 L 134.570312 178.6875 L 140.460938 178.992188 C 141.332031 179.621094 141.949219 180.027344 142.746094 180.761719 C 141.039062 183.820312 140.574219 184.652344 138.265625 187.363281 "/>
<path fill-rule="nonzero" fill="rgb(9.399414%, 25.498962%, 11.799622%)" fill-opacity="1" d="M 142.746094 180.761719 C 144.585938 186.761719 145.902344 191.355469 147.050781 197.609375 L 146.167969 197.902344 L 145.914062 199.253906 C 142.894531 199.976562 124.664062 199.675781 122.453125 198.59375 L 126.101562 196.019531 C 130.183594 193.257812 133.953125 190.074219 138.25 187.652344 L 138.265625 187.363281 C 140.574219 184.652344 141.039062 183.820312 142.746094 180.761719 "/>
<path fill-rule="nonzero" fill="rgb(10.198975%, 53.29895%, 27.099609%)" fill-opacity="1" d="M 142.746094 180.761719 C 144.585938 186.761719 145.902344 191.355469 147.050781 197.609375 L 146.167969 197.902344 C 143.53125 194.449219 141.425781 190.464844 138.25 187.652344 L 138.265625 187.363281 C 140.574219 184.652344 141.039062 183.820312 142.746094 180.761719 "/>
<path fill-rule="nonzero" fill="rgb(27.799988%, 71.798706%, 41.999817%)" fill-opacity="1" d="M 101.070312 170.292969 C 105.542969 172.425781 110.695312 174.957031 114.976562 177.476562 C 114.234375 179.410156 112.269531 180.34375 110.46875 181.40625 C 108.996094 182.171875 106.332031 183.441406 105.144531 184.4375 C 103.15625 185.671875 101.289062 187.089844 99.039062 187.503906 C 98.28125 187.207031 98.328125 187.34375 97.800781 186.820312 L 98.105469 183.386719 C 98.9375 179.15625 99.992188 174.808594 100.949219 170.59375 Z M 101.070312 170.292969 "/>
<path fill-rule="nonzero" fill="rgb(8.999634%, 31.799316%, 15.699768%)" fill-opacity="1" d="M 88.464844 164.980469 C 92.425781 163.914062 90.921875 166.511719 93.824219 165.96875 C 95.246094 166.660156 98.339844 168.648438 99.070312 168.875 C 99.53125 169.289062 100.589844 170.183594 100.949219 170.59375 C 99.992188 174.808594 98.9375 179.15625 98.105469 183.386719 L 97.800781 186.820312 C 95.101562 182.578125 91.089844 172.851562 88.632812 167.683594 L 87.601562 164.53125 Z M 88.464844 164.980469 "/>
<path fill-rule="nonzero" fill="rgb(10.198975%, 53.29895%, 27.099609%)" fill-opacity="1" d="M 87.601562 164.527344 L 88.460938 164.980469 C 91.5 169.175781 92.421875 172.871094 94.863281 177.171875 C 96.105469 179.359375 96.648438 182.351562 97.792969 183.730469 L 98.105469 183.386719 L 97.800781 186.820312 C 95.105469 182.578125 91.089844 172.851562 88.628906 167.683594 Z M 87.601562 164.527344 "/>
<path fill-rule="nonzero" fill="rgb(10.198975%, 53.29895%, 27.099609%)" fill-opacity="1" d="M 114.929688 176.191406 L 115.269531 176.019531 C 115.683594 181.222656 118.160156 192.425781 120.332031 197.070312 C 119.816406 198.230469 119.617188 198.542969 119.285156 199.742188 L 115.410156 193.539062 C 114.757812 189.273438 112.417969 185.316406 110.46875 181.40625 C 112.269531 180.34375 114.234375 179.410156 114.976562 177.476562 Z M 114.929688 176.191406 "/>
<path fill-rule="nonzero" fill="rgb(3.49884%, 48.999023%, 24.699402%)" fill-opacity="1" d="M 105.144531 184.4375 C 106.332031 183.441406 108.996094 182.171875 110.46875 181.40625 C 112.417969 185.316406 114.757812 189.273438 115.410156 193.539062 C 112.925781 191.023438 108.019531 185.90625 105.144531 184.4375 "/>
<path fill-rule="nonzero" fill="rgb(8.198547%, 64.299011%, 30.999756%)" fill-opacity="1" d="M 120.332031 197.070312 L 122.207031 192.746094 C 123.519531 193.820312 124.859375 194.867188 126.097656 196.019531 L 122.453125 198.59375 C 121.117188 199.425781 120.820312 199.839844 119.285156 199.742188 C 119.621094 198.542969 119.816406 198.230469 120.332031 197.070312 "/>
<path fill-rule="nonzero" fill="rgb(27.799988%, 71.798706%, 41.999817%)" fill-opacity="1" d="M 248.769531 162.269531 C 254.015625 158.679688 260.570312 159.90625 266.355469 160.863281 C 268.8125 161.261719 271.453125 161.539062 273.730469 162.460938 C 274.652344 165.65625 265.890625 182.300781 263.984375 186.257812 L 263.378906 187.320312 C 261.757812 189.195312 246.875 198.449219 244.417969 199.375 C 243.652344 199.484375 242.625 199.671875 241.878906 199.71875 L 241.511719 199.640625 L 241.128906 196.457031 L 241.304688 196.410156 C 242.960938 195.167969 245.550781 180.898438 246.675781 177.304688 C 246.550781 174.105469 244.167969 167.351562 243.117188 164.003906 Z M 248.769531 162.269531 "/>
<path fill-rule="nonzero" fill="rgb(8.999634%, 31.799316%, 15.699768%)" fill-opacity="1" d="M 248.769531 162.269531 C 254.015625 158.679688 260.570312 159.90625 266.355469 160.863281 C 268.8125 161.261719 271.453125 161.539062 273.730469 162.460938 C 274.652344 165.65625 265.890625 182.300781 263.984375 186.257812 C 262.984375 181.386719 261.945312 176.523438 260.875 171.671875 L 260.476562 169.96875 C 258.402344 167.140625 252.039062 163.808594 248.769531 162.269531 "/>
<path fill-rule="nonzero" fill="rgb(8.198547%, 64.299011%, 30.999756%)" fill-opacity="1" d="M 248.769531 162.269531 C 254.015625 158.679688 260.570312 159.90625 266.355469 160.863281 C 267.246094 161.960938 267.773438 162.609375 268.777344 163.628906 C 268.929688 165.179688 269.054688 164.429688 268.1875 165.910156 C 265.71875 167.449219 263.121094 168.480469 260.476562 169.96875 C 258.402344 167.140625 252.039062 163.808594 248.769531 162.269531 "/>
<path fill-rule="nonzero" fill="rgb(9.399414%, 43.099976%, 21.998596%)" fill-opacity="1" d="M 273.730469 162.460938 C 274.652344 165.65625 265.886719 182.300781 263.984375 186.257812 C 262.980469 181.386719 261.945312 176.527344 260.875 171.671875 C 264.242188 178.402344 264.285156 176.050781 264.359375 184.023438 C 266.328125 178.492188 270.648438 167.523438 273.730469 162.460938 "/>
<path fill-rule="nonzero" fill="rgb(9.399414%, 25.498962%, 11.799622%)" fill-opacity="1" d="M 246.988281 176.582031 L 247.316406 177.199219 C 248.269531 179.179688 249.222656 179.773438 251.261719 180.8125 L 252.484375 181.550781 C 254.683594 182.738281 257.9375 184.378906 259.980469 185.65625 L 261.707031 186.628906 L 263.378906 187.320312 C 261.757812 189.195312 246.871094 198.453125 244.417969 199.375 C 243.652344 199.484375 242.625 199.671875 241.882812 199.71875 L 241.511719 199.640625 L 241.128906 196.457031 L 241.304688 196.410156 C 242.960938 195.167969 245.554688 180.898438 246.675781 177.304688 Z M 246.988281 176.582031 "/>
<path fill-rule="nonzero" fill="rgb(8.198547%, 64.299011%, 30.999756%)" fill-opacity="1" d="M 246.988281 176.582031 L 247.316406 177.199219 C 248.269531 179.179688 249.222656 179.773438 251.261719 180.8125 L 252.484375 181.550781 C 251.296875 183.832031 250.300781 187.4375 249.496094 189.972656 L 247.191406 192.65625 C 245.363281 195.253906 243.890625 197.257812 241.882812 199.71875 L 241.511719 199.640625 L 241.128906 196.457031 L 241.304688 196.410156 C 242.960938 195.167969 245.554688 180.898438 246.675781 177.304688 Z M 246.988281 176.582031 "/>
<path fill-rule="nonzero" fill="rgb(10.198975%, 53.29895%, 27.099609%)" fill-opacity="1" d="M 251.261719 180.8125 L 252.484375 181.550781 C 251.296875 183.832031 250.300781 187.4375 249.496094 189.972656 L 247.191406 192.65625 C 246.785156 187.4375 248.28125 184.726562 251.261719 180.8125 "/>
<path fill-rule="nonzero" fill="rgb(3.49884%, 48.999023%, 24.699402%)" fill-opacity="1" d="M 252.484375 181.550781 C 254.683594 182.738281 257.9375 184.378906 259.980469 185.65625 L 255.382812 185.820312 C 253.238281 187.222656 251.464844 188.316406 249.496094 189.972656 C 250.300781 187.4375 251.296875 183.832031 252.484375 181.550781 "/>
<path fill-rule="nonzero" fill="rgb(16.099548%, 27.49939%, 17.999268%)" fill-opacity="1" d="M 261.707031 186.628906 L 263.378906 187.320312 C 261.757812 189.195312 246.871094 198.453125 244.417969 199.375 C 245.464844 196.640625 258.160156 190.472656 261.707031 186.628906 "/>
<path fill-rule="nonzero" fill="rgb(81.599426%, 90.99884%, 81.199646%)" fill-opacity="1" d="M 243.117188 164.003906 L 248.769531 162.269531 C 252.039062 163.808594 258.402344 167.140625 260.476562 169.96875 C 256.71875 172.492188 251.398438 174.925781 247.316406 177.199219 L 246.988281 176.582031 L 246.675781 177.304688 C 246.550781 174.105469 244.167969 167.355469 243.117188 164.003906 "/>
<path fill-rule="nonzero" fill="rgb(9.399414%, 43.099976%, 21.998596%)" fill-opacity="1" d="M 243.117188 164.003906 L 248.769531 162.269531 C 247.519531 167.765625 246.632812 170.976562 246.988281 176.582031 L 246.675781 177.304688 C 246.550781 174.105469 244.167969 167.355469 243.117188 164.003906 "/>
<path fill-rule="nonzero" fill="rgb(27.799988%, 71.798706%, 41.999817%)" fill-opacity="1" d="M 221.007812 178.859375 C 224.574219 174.316406 231.265625 169.652344 236.390625 167.035156 C 235.484375 170.738281 234.773438 173.644531 233.519531 177.234375 C 235.800781 183.257812 239.167969 190.765625 241.128906 196.457031 L 241.511719 199.640625 L 241.882812 199.71875 C 239.179688 201.050781 234.730469 200.542969 231.601562 200.382812 C 228.988281 199.585938 226.59375 199.613281 223.882812 199.484375 L 223.785156 199.152344 C 221.289062 199.207031 216.640625 199.691406 214.863281 198.300781 L 215.050781 197.332031 L 217.027344 195.417969 C 217.832031 194.085938 219.3125 192.378906 220.339844 191.117188 L 220.941406 189.800781 C 221.820312 189.085938 222.726562 188.4375 223.640625 187.765625 L 223.332031 187.375 C 221.136719 185.652344 220.371094 184.378906 218.777344 182.152344 C 219.117188 180.65625 219.957031 180 221.007812 178.859375 "/>
<path fill-rule="nonzero" fill="rgb(44.299316%, 76.499939%, 55.299377%)" fill-opacity="1" d="M 221.007812 178.859375 C 224.574219 174.316406 231.265625 169.652344 236.390625 167.035156 C 235.484375 170.738281 234.773438 173.644531 233.519531 177.234375 L 232.402344 176.988281 C 231.585938 179.480469 225.398438 185.316406 223.332031 187.375 C 221.136719 185.652344 220.371094 184.378906 218.777344 182.152344 C 219.117188 180.65625 219.957031 180 221.007812 178.859375 "/>
<path fill-rule="nonzero" fill="rgb(9.399414%, 43.099976%, 21.998596%)" fill-opacity="1" d="M 221.007812 178.859375 C 224.574219 174.316406 231.265625 169.652344 236.390625 167.035156 C 235.484375 170.738281 234.773438 173.644531 233.519531 177.234375 L 232.402344 176.988281 C 228.171875 177.347656 225.164062 178.050781 221.007812 178.859375 "/>
<path fill-rule="nonzero" fill="rgb(9.799194%, 19.599915%, 10.998535%)" fill-opacity="1" d="M 220.339844 191.117188 C 221.589844 190.65625 222.691406 189.957031 223.820312 190.816406 C 228.328125 194.257812 227.929688 196.019531 233.625 197.605469 C 234.328125 197.921875 235.300781 198.320312 235.953125 198.679688 C 237.457031 198.652344 236.917969 198.671875 238.414062 197.914062 C 239.417969 198.519531 240.441406 199.21875 241.511719 199.640625 L 241.882812 199.71875 C 239.179688 201.050781 234.730469 200.542969 231.601562 200.382812 C 228.988281 199.585938 226.59375 199.613281 223.882812 199.484375 L 223.785156 199.152344 C 221.289062 199.207031 216.640625 199.691406 214.863281 198.300781 L 215.050781 197.332031 L 217.027344 195.417969 C 217.832031 194.085938 219.3125 192.378906 220.339844 191.117188 "/>
<path fill-rule="nonzero" fill="rgb(9.399414%, 25.498962%, 11.799622%)" fill-opacity="1" d="M 220.339844 191.117188 C 221.589844 190.65625 222.691406 189.957031 223.820312 190.816406 C 228.328125 194.257812 227.929688 196.019531 233.625 197.605469 C 229.582031 197.324219 220.03125 197.246094 217.027344 195.417969 C 217.832031 194.085938 219.3125 192.378906 220.339844 191.117188 "/>
<path fill-rule="nonzero" fill="rgb(16.099548%, 27.49939%, 17.999268%)" fill-opacity="1" d="M 238.414062 197.914062 C 239.417969 198.519531 240.441406 199.21875 241.511719 199.640625 L 241.882812 199.71875 C 239.179688 201.050781 234.730469 200.542969 231.601562 200.382812 C 228.988281 199.585938 226.59375 199.613281 223.882812 199.484375 L 223.785156 199.152344 C 227.84375 199.054688 231.898438 198.894531 235.953125 198.679688 C 237.457031 198.652344 236.917969 198.671875 238.414062 197.914062 "/>
<path fill-rule="nonzero" fill="rgb(8.999634%, 31.799316%, 15.699768%)" fill-opacity="1" d="M 220.9375 189.800781 C 221.820312 189.085938 222.726562 188.4375 223.640625 187.765625 C 228.761719 191.074219 233.6875 194.046875 238.414062 197.914062 C 236.917969 198.671875 237.457031 198.652344 235.953125 198.679688 C 235.300781 198.320312 234.328125 197.921875 233.625 197.605469 C 227.929688 196.019531 228.328125 194.257812 223.820312 190.816406 C 222.695312 189.957031 221.589844 190.65625 220.339844 191.117188 Z M 220.9375 189.800781 "/>
<path fill-rule="nonzero" fill="rgb(9.399414%, 43.099976%, 21.998596%)" fill-opacity="1" d="M 218.773438 182.152344 C 220.371094 184.378906 221.136719 185.652344 223.332031 187.375 L 223.640625 187.765625 C 222.726562 188.441406 221.820312 189.085938 220.9375 189.800781 L 220.339844 191.117188 C 219.3125 192.378906 217.832031 194.085938 217.027344 195.417969 L 215.050781 197.332031 L 214.785156 196.589844 C 216.15625 191.796875 215.101562 190.542969 217.375 184.863281 C 218.15625 183.988281 218.304688 183.273438 218.773438 182.152344 "/>
<path fill-rule="nonzero" fill="rgb(3.49884%, 48.999023%, 24.699402%)" fill-opacity="1" d="M 218.773438 182.152344 C 220.371094 184.378906 221.136719 185.652344 223.332031 187.375 L 223.640625 187.765625 C 222.726562 188.441406 221.820312 189.085938 220.9375 189.800781 C 217.519531 187.464844 217.707031 190.390625 217.375 184.863281 C 218.15625 183.988281 218.304688 183.273438 218.773438 182.152344 "/>
<path fill-rule="nonzero" fill="rgb(20.399475%, 24.299622%, 20.399475%)" fill-opacity="1" d="M 231.597656 200.382812 C 228.433594 200.425781 216.230469 201.828125 214.128906 200.023438 C 215.726562 199.183594 221.691406 199.476562 223.882812 199.484375 C 226.59375 199.613281 228.988281 199.585938 231.597656 200.382812 "/>
</svg>
